<svg xmlns="http://www.w3.org/2000/svg" xmlns:xlink="http://www.w3.org/1999/xlink" width="97" height="32" viewBox="0 0 97 32"><defs><linearGradient id="commsec-dark-b" x1="0%" x2="100%" y1="50%" y2="50%"><stop offset="0%" stop-color="#FDE516"/><stop offset="32%" stop-color="#FDE516"/><stop offset="51%" stop-color="#FDE113"/><stop offset="70%" stop-color="#FED508"/><stop offset="80%" stop-color="#FC0"/><stop offset="100%" stop-color="#FC0"/></linearGradient><linearGradient id="commsec-dark-c" x1="25%" x2="95.711%" y1="25%" y2="95.711%"><stop offset="0%" stop-color="#FF0"/><stop offset="4%" stop-color="#FFFD00" stop-opacity=".96"/><stop offset="9%" stop-color="#FFF800" stop-opacity=".87"/><stop offset="17%" stop-color="#FFF000" stop-opacity=".71"/><stop offset="26%" stop-color="#FFE500" stop-opacity=".49"/><stop offset="35%" stop-color="gold" stop-opacity=".22"/><stop offset="42%" stop-color="#FC0" stop-opacity="0"/><stop offset="100%" stop-color="#FC0" stop-opacity="0"/></linearGradient><polyline id="commsec-dark-a" points="15.995 .006 31.99 16.001 15.995 31.997 0 16.001 15.995 .006"/><linearGradient id="commsec-dark-e" x1="-20.242%" x2="191.831%" y1="50%" y2="50%"><stop offset="0%" stop-color="#D7851A"/><stop offset="6%" stop-color="#DB8A1A"/><stop offset="13%" stop-color="#E5981A"/><stop offset="20%" stop-color="#F5AD1A"/><stop offset="28%" stop-color="#F5B01A" stop-opacity=".98"/><stop offset="35%" stop-color="#F6BA1B" stop-opacity=".94"/><stop offset="40%" stop-color="#F8CA1D" stop-opacity=".87"/><stop offset="46%" stop-color="#FBE020" stop-opacity=".76"/><stop offset="46%" stop-color="#FBE320" stop-opacity=".75"/><stop offset="61%" stop-color="#FDF4A7" stop-opacity=".47"/><stop offset="70%" stop-color="#FFF" stop-opacity=".3"/><stop offset="100%" stop-color="#FFF" stop-opacity=".3"/></linearGradient><linearGradient id="commsec-dark-g" x1="33.147%" x2="53.529%" y1="42.853%" y2="59.656%"><stop offset="0%" stop-color="#D7851A"/><stop offset="29%" stop-color="#EFAF0B" stop-opacity=".4"/><stop offset="49%" stop-color="#FC0" stop-opacity="0"/><stop offset="100%" stop-color="#FC0" stop-opacity="0"/></linearGradient><linearGradient id="commsec-dark-h" x1="32.336%" x2="59.902%" y1="28.089%" y2="50.402%"><stop offset="0%" stop-color="#333224" stop-opacity=".7"/><stop offset="7.58%" stop-color="#333224" stop-opacity=".7"/><stop offset="15.146%" stop-color="#594F1D" stop-opacity=".57"/><stop offset="35.293%" stop-color="#B5940D" stop-opacity=".25"/><stop offset="52.189%" stop-color="#ECBE03" stop-opacity=".06"/><stop offset="69.81%" stop-color="#FC0" stop-opacity="0"/><stop offset="100%" stop-color="#FC0" stop-opacity="0"/></linearGradient><polygon id="commsec-dark-f" points="22.068 17.618 15.995 31.997 31.99 16.001 27.835 11.846"/></defs><g fill="none" fill-rule="evenodd"><path fill="#000" fill-rule="nonzero" d="M11.919315,2.28064 C13.8457,2.28064 15.235445,3.71167 15.235445,5.968295 C15.235445,8.22492 13.8457,9.655945 11.919315,9.655945 C10.00669,9.655945 8.61694,8.224935 8.61694,5.968295 C8.61694,3.71167 10.00669,2.28064 11.919315,2.28064 Z M56.837775,2.281185 C58.44558,2.281185 59.54494,3.256865 59.70984,4.56235 L58.253195,4.56237 C58.210904,4.21912845 58.0332374,3.90700709 57.7596954,3.69539884 C57.4861534,3.48379059 57.139408,3.39023429 56.79655,3.43553 C55.655965,3.43553 54.886415,4.232565 54.886415,5.96403 C54.886415,7.695495 55.655965,8.492555 56.79655,8.492555 C57.139408,8.53785071 57.4861534,8.44429441 57.7596954,8.23268616 C58.0332374,8.02107791 58.210904,7.70895655 58.253195,7.365715 L59.70984,7.365715 C59.54494,8.671215 58.44558,9.64688 56.837775,9.64688 C54.90016,9.64688 53.457275,8.300165 53.457275,5.96403 C53.457275,3.627895 54.90018,2.281185 56.837775,2.281185 Z M49.782395,2.28119 C51.568845,2.28119 52.791895,3.435515 52.791895,5.63423 C52.791068,5.86842903 52.777307,6.10240366 52.750675,6.335085 L47.817315,6.335085 C47.92725,7.75051 48.641815,8.506315 49.864865,8.506315 C50.5012375,8.58106247 51.1089815,8.22091153 51.348995,7.626815 L52.750675,7.626815 C52.352175,8.959785 51.22532,9.646885 49.75493,9.646885 C47.762345,9.646885 46.401895,8.21772 46.401895,5.964035 C46.401895,3.71035 47.77609,2.28119 49.782395,2.28119 Z M42.02852,-0.370995 C43.74626,-0.370995 45.395295,0.508505 45.62891,2.528555 L44.08981,2.528555 C43.8562,1.470425 43.196585,0.87952 41.95981,0.87952 C40.819225,0.87952 40.035935,1.387975 40.035935,2.33617 C40.035935,3.21567 40.599355,3.6554 41.520065,3.8203 L43.52639,4.17759 C45.01052,4.43869 45.793815,5.318175 45.793815,6.66489 C45.793815,8.56128 44.22723,9.64689 42.220905,9.64689 C40.118375,9.64689 38.606765,8.41012 38.331925,6.678635 L39.884765,6.678635 C40.21457,7.736765 41.06657,8.382635 42.39954,8.382635 C43.636315,8.382635 44.3509,7.72302 44.3509,6.81605 C44.3509,6.032755 43.86993,5.593015 42.94922,5.441855 L41.011605,5.112045 C39.44502,4.85095 38.59302,3.916495 38.59302,2.47359 C38.59302,0.74209 40.06341,-0.370995 42.02852,-0.370995 Z M4.377095,-0.375 C6.166,-0.375 7.734735,0.601955 7.99619,2.52834 L6.46874,2.52834 C6.27609,1.344985 5.35411,0.91843 4.390855,0.91843 C2.7946,0.91843 1.61117,1.991705 1.61117,4.633605 C1.61117,7.275505 2.7946,8.348795 4.390855,8.348795 C5.35411,8.348795 6.27609,7.92224 6.46874,6.73889 L7.99619,6.73889 C7.734735,8.665275 6.166,9.642225 4.377095,9.642225 C1.941425,9.642225 0.125,7.93598 0.125,4.633605 C0.125,1.33123 1.941425,-0.375 4.377095,-0.375 Z M32.993025,3.670395 C33.4008549,2.79864422 34.2876294,2.25252121 35.24965,2.280645 C36.515545,2.28066 37.561295,3.120015 37.561295,4.86752 L37.561295,9.47709 L36.130265,9.47709 L36.130265,5.08768 C36.130265,3.95937 35.62115,3.54657 34.836835,3.54657 C33.928685,3.54657 33.19941,4.289605 33.19941,5.500475 L33.19941,9.47709 L31.76838,9.47709 L31.76838,5.08768 C31.76838,3.95937 31.259265,3.54657 30.47495,3.54657 C29.5668,3.54657 28.837525,4.289605 28.837525,5.500475 L28.837525,9.47709 L27.406495,9.47709 L27.406495,2.45954 L28.837525,2.45954 L28.837525,3.532795 C29.2429748,2.75457995 30.0515828,2.27047832 30.929025,2.280645 C31.8462882,2.24488415 32.6811674,2.80703214 32.993025,3.670395 Z M21.7046,3.670395 C22.1124292,2.79864592 22.9992012,2.25252323 23.96122,2.280645 C25.227095,2.28066 26.272845,3.120015 26.272845,4.86752 L26.272845,9.47709 L24.84182,9.47709 L24.84182,5.08768 C24.84182,3.95937 24.3327,3.54657 23.54839,3.54657 C22.640235,3.54657 21.91096,4.289605 21.91096,5.500475 L21.91096,9.47709 L20.47996,9.47709 L20.47996,5.08768 C20.47996,3.95937 19.970845,3.54657 19.18653,3.54657 C18.278375,3.54657 17.5491,4.289605 17.5491,5.500475 L17.5491,9.47709 L16.1181,9.47709 L16.1181,2.45954 L17.5491,2.45954 L17.5491,3.532795 C17.9545506,2.75458078 18.7631581,2.27047948 19.6406,2.280645 C20.5578623,2.24488737 21.3927398,2.8070342 21.7046,3.670395 Z M11.919315,3.43647 C10.818525,3.43647 10.04797,4.262065 10.04797,5.968295 C10.04797,7.674525 10.81852,8.500115 11.919315,8.500115 C13.02011,8.500115 13.7769,7.67454 13.7769,5.968295 C13.7769,4.262065 13.020105,3.43647 11.919315,3.43647 Z M49.727465,3.42179 C48.751765,3.42179 48.037185,4.012695 47.8448,5.221985 L51.403965,5.221985 C51.348995,3.875275 50.60693,3.42179 49.727465,3.42179 Z" transform="translate(37 11)"/><mask id="commsec-dark-d" fill="#fff"><use xlink:href="#commsec-dark-a"/></mask><g fill-rule="nonzero"><use fill="url(#commsec-dark-b)" xlink:href="#commsec-dark-a"/><use fill="url(#commsec-dark-c)" xlink:href="#commsec-dark-a"/></g><g fill-rule="nonzero" mask="url(#commsec-dark-d)"><use fill="url(#commsec-dark-e)" xlink:href="#commsec-dark-f"/><use fill="url(#commsec-dark-g)" xlink:href="#commsec-dark-f"/><use fill="url(#commsec-dark-h)" xlink:href="#commsec-dark-f"/></g></g></svg>
