<?xml version="1.0" encoding="UTF-8"?>
<svg width="48px" height="48px" viewBox="0 0 48 48" version="1.1" xmlns="http://www.w3.org/2000/svg" xmlns:xlink="http://www.w3.org/1999/xlink">
    <!-- Generator: Sketch 51.3 (57544) - http://www.bohemiancoding.com/sketch -->
    <title>pictogram/Small./Cards48</title>
    <desc>Created with Sketch.</desc>
    <defs></defs>
    <g id="pictogram/Small./Cards48" stroke="none" stroke-width="1" fill="none" fill-rule="evenodd">
        <rect id="Bounding-Box" x="0" y="0" width="48" height="48"></rect>
        <g id="pictogramCard48" transform="translate(3.000000, 10.000000)" stroke="#4F4C4D" stroke-width="1.5">
            <path d="M3,0.75 C1.75735931,0.75 0.75,1.75735931 0.75,3 L0.75,25 C0.75,26.2426407 1.75735931,27.25 3,27.25 L39,27.25 C40.2426407,27.25 41.25,26.2426407 41.25,25 L41.25,3 C41.25,1.75735931 40.2426407,0.75 39,0.75 L3,0.75 Z" id="card" fill="#FFFFFF"></path>
            <path d="M33.2755071,0.75 L20.0593082,14 L33.2755071,27.25 L39,27.25 C40.2426407,27.25 41.25,26.2426407 41.25,25 L41.25,3 C41.25,1.75735931 40.2426407,0.75 39,0.75 L33.2755071,0.75 Z" id="focus" fill="#FFCC00"></path>
            <path d="M8.00235932,6.06301949 L5.06067071,9.03094036 L7.99763014,11.9417097 L10.9393398,9 L8.00235932,6.06301949 Z" id="brand" fill="#FFFFFF"></path>
        </g>
    </g>
</svg>