<?xml version="1.0" encoding="UTF-8"?>
<svg width="64px" height="64px" viewBox="0 0 64 64" version="1.1" xmlns="http://www.w3.org/2000/svg" xmlns:xlink="http://www.w3.org/1999/xlink">
    <title>PersonalOverdrafts64</title>
    <g id="PersonalOverdrafts64" stroke="none" stroke-width="1" fill="none" fill-rule="evenodd">
        <g id="Personal-Overdrafts" transform="translate(12.000000, 20.000000)">
            <rect id="Rectangle" stroke="#1E1E1E" fill="#FFFFFF" x="0" y="0" width="43" height="25" rx="1"></rect>
            <rect id="Rectangle" stroke="#1E1E1E" fill="#FAEC20" x="10" y="0" width="12" height="25"></rect>
            <path d="M36.5815739,13 L36.5815739,11.8235294 C38.1477927,11.6928105 39,10.832244 39,9.68845316 C39,8.62091503 38.3550864,7.96732026 37.0767754,7.70588235 L36.5815739,7.60784314 L36.5815739,4.99346405 C37.3301344,5.11328976 37.756238,5.51633987 37.8829175,6.12636166 L38.8848369,6.12636166 C38.6660269,4.83006536 37.6871401,4.30718954 36.5815739,4.18736383 L36.5815739,3 L35.7523992,3 L35.7523992,4.17647059 C34.2322457,4.28540305 33.3339731,5.15686275 33.3339731,6.31154684 C33.3339731,7.34640523 33.9904031,8.01089325 35.2571977,8.26143791 L35.7523992,8.35947712 L35.7523992,11.0065359 C34.7044146,10.875817 34.1285988,10.2766885 34.0134357,9.48148148 L33,9.48148148 C33.2303263,10.9738562 34.3704415,11.6928105 35.7523992,11.8126362 L35.7523992,13 L36.5815739,13 Z M35.7523992,7.4335512 L35.5105566,7.38997821 C34.646833,7.21568627 34.3013436,6.81263617 34.3013436,6.19172113 C34.3013436,5.49455338 34.865643,5.03703704 35.7523992,4.96078431 L35.7523992,7.4335512 Z M36.5815739,11.0283224 L36.5815739,8.52287582 L36.950096,8.59912854 C37.7101727,8.75163399 38.0441459,9.14379085 38.0441459,9.7211329 C38.0441459,10.4400871 37.537428,10.9302832 36.5815739,11.0283224 Z" id="$" fill="#231F20" fill-rule="nonzero"></path>
        </g>
    </g>
</svg>