<?xml version="1.0" encoding="UTF-8"?>
<svg width="64px" height="64px" viewBox="0 0 64 64" version="1.1" xmlns="http://www.w3.org/2000/svg" xmlns:xlink="http://www.w3.org/1999/xlink">
    <title>Savings64</title>
    <g id="Savings64" stroke="none" stroke-width="1" fill="none" fill-rule="evenodd">
        <g id="Savings">
            <rect id="Bounding-Box" x="0" y="0" width="64" height="64"></rect>
            <g id="Pictogram" transform="translate(12.000000, 13.000000)" stroke="#1E1E1E">
                <polygon id="50c" fill="#FFFFFF" points="14 0 22.2289935 2.67376208 27.5 9.67376208 27.5 18.3262379 22.2289935 25.3262379 14 28 5.77100647 25.3262379 0.5 18.3262379 0.5 9.67376208 5.77100647 2.67376208"></polygon>
                <ellipse id="20c" fill="#FFFFFF" cx="29.5" cy="22.5" rx="11" ry="10.5"></ellipse>
                <g id="dollar" transform="translate(3.000000, 21.000000)">
                    <ellipse id="Focus" fill="#FAEC20" cx="10" cy="9" rx="9.5" ry="9"></ellipse>
                    <g id="$" transform="translate(7.000000, 3.000000)">
                        <g id="Dollar-sign" transform="translate(0.300000, 0.500000)">
                            <line x1="0.529249742" y1="9" x2="3.22924974" y2="9" id="Path" stroke-linecap="round"></line>
                            <line x1="2" y1="2" x2="4.5" y2="2" id="Path" stroke-linecap="round"></line>
                            <line x1="1.75" y1="5.5" x2="3.25" y2="5.5" id="Path" stroke-linecap="round"></line>
                            <path d="M2,2 C0.8954305,2 0,2.78350169 0,3.75 C0,4.71649831 0.8954305,5.5 2,5.5 L2,5.5" id="Curve"></path>
                            <path d="M5,5.5 C3.8954305,5.5 3,6.28350169 3,7.25 C3,8.21649831 3.8954305,9 5,9" id="Curve-bottom" transform="translate(4.000000, 7.250000) scale(-1, 1) translate(-4.000000, -7.250000) "></path>
                            <line x1="2.48125" y1="2.05078125" x2="2.48125" y2="0" id="Stick-top"></line>
                            <line x1="2.48125" y1="10.9375" x2="2.48125" y2="8.88671875" id="Stick-bottom"></line>
                        </g>
                        <line x1="2.98502002" y1="6" x2="2.28502002" y2="6" id="Path"></line>
                    </g>
                </g>
            </g>
        </g>
    </g>
</svg>