<?xml version="1.0" encoding="UTF-8"?>
<svg width="64px" height="64px" viewBox="0 0 64 64" version="1.1" xmlns="http://www.w3.org/2000/svg" xmlns:xlink="http://www.w3.org/1999/xlink">
    <title>Vehicle64</title>
    <g id="Vehicle64" stroke="none" stroke-width="1" fill="none" fill-rule="evenodd">
        <g id="Vehicle">
            <rect id="Bounding-Box" x="0" y="0" width="64" height="64"></rect>
            <g id="Pictogram" transform="translate(7.925926, 18.000000)" stroke="#1E1E1E">
                <path d="M0.574074074,9.5 L42.5740741,9.5 C44.7832131,9.5 46.5740741,11.290861 46.5740741,13.5 L46.5740741,20.5 L46.5740741,20.5 L4.57407407,20.5 C2.36493507,20.5 0.574074074,18.709139 0.574074074,16.5 L0.574074074,9.5 L0.574074074,9.5 Z" id="Body" fill="#FAEC20"></path>
                <path d="M15.5555556,20 C15.5555556,22.4854202 13.5406554,24.5 11.0559773,24.5 C8.57045575,24.5 6.55555556,22.4854202 6.55555556,20 C6.55555556,17.5145798 8.57045575,15.5 11.0559773,15.5 C13.5406554,15.5 15.5555556,17.5145798 15.5555556,20 L15.5555556,20 Z" id="BackWheel" fill="#FFFFFF"></path>
                <path d="M41.5555556,20 C41.5555556,22.4854202 39.5406554,24.5 37.0559773,24.5 C34.5704558,24.5 32.5555556,22.4854202 32.5555556,20 C32.5555556,17.5145798 34.5704558,15.5 37.0559773,15.5 C39.5406554,15.5 41.5555556,17.5145798 41.5555556,20 L41.5555556,20 Z" id="FrontWheel" fill="#FFFFFF"></path>
                <path d="M13.1743409,2.08830212 C13.837148,1.21110708 15.2744266,0.5 16.3804594,0.5 L25.7676888,0.5 C26.875572,0.5 28.3186975,1.22129415 28.9738073,2.08830212 L34.5740741,9.5 L7.57407407,9.5 L13.1743409,2.08830212 Z" id="Roof" fill="#FFFFFF"></path>
            </g>
        </g>
    </g>
</svg>